<?xml version="1.0" encoding="UTF-8" standalone="no"?>
<svg width="51px" height="20px" viewBox="0 0 51 20" version="1.1" xmlns="http://www.w3.org/2000/svg" xmlns:xlink="http://www.w3.org/1999/xlink">
    <!-- Generator: sketchtool 41.2 (35397) - http://www.bohemiancoding.com/sketch -->
    <title>FC18D0BD-24F6-47FF-9973-DC337804B458</title>
    <desc>Created with sketchtool.</desc>
    <defs></defs>
    <g id="Symbols" stroke="none" stroke-width="1" fill="none" fill-rule="evenodd">
        <g id="Sage-Header" transform="translate(-72.000000, -22.000000)" fill="#00DC00">
            <g id="header">
                <g id="logo-sage-product" transform="translate(66.000000, 8.000000)">
                    <g id="logo-sage" transform="translate(6.000000, 14.000000)">
                        <path d="M40.5044759,5.94092742 C40.5044759,3.61143433 42.2727868,2.48557028 44.1795852,2.48557028 C46.086095,2.48557028 47.8053583,3.63073157 47.8053583,5.94092742 L40.5044759,5.94092742 Z M43.8423106,0.0186923963 C39.9565852,0.0186923963 37.4130333,2.67998272 37.4130333,7.06938364 C37.4130333,12.5178283 41.3033751,14.0809044 44.0817784,14.0809044 C47.6013779,14.0809044 49.607714,11.7194412 49.607714,11.7194412 L47.8174759,9.92767857 C46.8676832,10.7793491 45.7661314,11.2888537 44.1259213,11.2888537 C41.9600361,11.2888537 40.5001482,10.0241647 40.5001482,8.29403802 L50.151277,8.29403802 C50.151277,8.29403802 51.8364955,0.0186923963 43.8423106,0.0186923963 L43.8423106,0.0186923963 Z" id="Fill-6"></path>
                        <path d="M8.29770308,5.7061924 C7.06314566,5.55210253 3.48613165,5.69092742 3.48613165,4.06391129 C3.48613165,3.09933756 4.9852577,2.58032834 6.36753501,2.58032834 C8.57640896,2.58032834 10.0322577,3.46195276 10.4555098,3.75486751 L12.3112409,1.90233295 C11.7619076,1.45964862 9.71633333,0.0189804147 6.36753501,0.0189804147 C3.31648459,0.0189804147 0.57154902,1.61143433 0.57154902,4.1655818 C0.57154902,8.0843606 5.30839496,8.08320853 7.28645658,8.27618088 C8.48437255,8.39282834 9.57842297,8.47520161 9.57842297,9.64772465 C9.57842297,10.7378744 7.90532213,11.3444412 6.61017647,11.3444412 C4.49939776,11.3444412 3.23454622,10.6520449 1.99710364,9.54144585 L0,11.5374136 C1.83178431,13.3029666 4.15231373,14.0806164 6.4385098,14.0806164 C9.97888235,14.0806164 12.5671541,12.5209965 12.5671541,9.3827477 C12.5671541,7.30239055 11.1664118,6.06391129 8.29770308,5.7061924" id="Fill-7"></path>
                        <path d="M21.6045241,8.89300115 C21.6045241,11.4972638 19.7453308,11.3569988 18.0849246,11.3569988 C16.4043224,11.3569988 15.3310451,10.9102823 15.3310451,9.74265553 C15.3310451,8.65452189 16.2052468,8.29392281 18.0113532,8.29392281 L21.6045241,8.29392281 L21.6045241,8.89300115 Z M18.4977902,0.0188652074 C15.4187538,0.0188652074 13.4228042,1.58366935 13.0514849,1.89933756 L14.917891,3.7625288 C15.2894989,3.46817396 16.5560815,2.59605415 18.5211599,2.59605415 C20.8794849,2.59605415 21.5834625,3.53470622 21.5834625,4.59634217 L21.5834625,5.91834677 L17.379793,5.92093894 C15.8255605,5.92093894 12.7681627,6.31177995 12.7681627,9.7265265 C12.7681627,12.234879 14.2092972,14.0810772 17.6495549,14.0810772 C19.3766081,14.0810772 20.6824289,13.5223214 21.5834625,12.4448445 L21.5834625,13.8063076 L24.6350899,13.8063076 L24.6350899,4.79824309 C24.6350899,1.64789747 22.7000171,0.0188652074 18.4977902,0.0188652074 L18.4977902,0.0188652074 Z" id="Fill-8"></path>
                        <path d="M34.0560989,7.0421947 C34.0560989,8.09202189 34.038788,8.86938364 33.9539644,9.26512097 C33.7664294,10.1395449 32.7707627,11.2890265 30.9635022,11.2890265 C30.5111101,11.2890265 28.1928888,11.0298099 27.9332249,9.02520161 C27.8807151,8.62370392 27.8409,8.09202189 27.8409,7.0421947 C27.8409,5.48113479 27.9052389,4.98487903 27.9854462,4.58827765 C28.1449952,3.80198733 29.1749952,2.64559332 30.9635022,2.64559332 C33.1536227,2.64559332 33.8570232,4.13522465 33.9600232,4.7109735 C34.0315751,5.109303 34.0560989,5.99236751 34.0560989,7.0421947 L34.0560989,7.0421947 Z M34.0560989,0.308035714 L34.0560989,1.81955645 C33.0168664,0.614199309 31.7762501,0.0188652074 30.0823762,0.0188652074 C27.1897207,0.0188652074 25.7001157,1.63839286 25.1957908,3.36275922 C25.0085443,4.00360023 24.9439168,5.22739055 24.9439168,7.03614631 C24.9439168,8.74035138 24.9594966,10.2901786 25.5532613,11.4819988 C26.3833202,13.1496256 28.3988888,14.0810772 30.0823762,14.0810772 C31.7136423,14.0810772 33.0979392,13.4497408 34.0560989,12.3541187 L34.0560989,13.2003168 C34.0560989,14.1945565 33.7147852,14.8474942 33.0777431,15.3636233 C32.4392585,15.8811924 31.6383398,16.1983007 30.5266899,16.1983007 C29.5183286,16.1983007 28.551802,15.6493376 28.0010261,15.2671371 L25.9502585,17.3140841 C27.2797375,18.390409 28.8694574,19.1234159 30.58497,19.1375288 C32.4029056,19.1525058 33.8659672,18.6026786 35.1478412,17.5966302 C36.3748972,16.6332085 37.1486955,14.8221486 37.1486955,12.9007776 L37.1486955,0.308035714 L34.0560989,0.308035714 Z" id="Fill-9"></path>
                    </g>
                </g>
            </g>
        </g>
    </g>
</svg>